<svg t="1726643123851" class="icon" viewBox="0 0 1024 1024" version="1.1" xmlns="http://www.w3.org/2000/svg" p-id="9501" width="200" height="200"><path d="M512 1024a512 512 0 0 0 512-512H0a512 512 0 0 0 512 512z" fill="#F9F9F9" p-id="9502"></path><path d="M512 0a512 512 0 0 0-512 512h1024a512 512 0 0 0-512-512z" fill="#ED4C5C" p-id="9503"></path><path d="M328.32 264.32l-21.12-16.64h26.24l7.68-25.6 8.32 25.6h26.24l-21.12 16.64 7.68 25.6-21.12-16-21.12 16 8.32-25.6zM464.64 264.32l-21.12-16.64h26.24l8.32-25.6 7.68 25.6H512l-21.12 16.64 8.32 25.6-21.12-16-21.12 16 7.68-25.6zM344.96 349.44l-20.48-16h25.6l8.32-26.24 8.32 26.24h25.6l-21.12 16 8.32 26.24-21.12-16-21.12 16 7.68-26.24zM448 349.44l-21.12-16h25.6l8.32-26.24 8.32 26.24h25.6l-20.48 16 7.68 26.24-21.12-16-21.12 16 8.32-26.24zM396.8 213.12l-21.12-16.64h25.6l8.32-25.6 8.32 25.6h25.6l-20.48 16.64 7.68 25.6-21.12-16-21.12 16 8.32-25.6z" fill="#F9F9F9" p-id="9504"></path><path d="M384 442.88a151.68 151.68 0 0 1-149.12-154.24A151.68 151.68 0 0 1 384 133.76h17.28a147.84 147.84 0 0 0-64-15.36 166.4 166.4 0 0 0-166.4 171.52A166.4 166.4 0 0 0 332.8 460.8a156.16 156.16 0 0 0 76.8-20.48 128 128 0 0 1-25.6 2.56z" fill="#F9F9F9" p-id="9505"></path></svg>