<svg t="1726818305869" class="icon" viewBox="0 0 1024 1024" version="1.1" xmlns="http://www.w3.org/2000/svg" p-id="6353" width="200" height="200"><path d="M0 0h1024v1024H0z" fill="#FFFFFF" p-id="6354"></path><path d="M910.912 0H113.088C50.88 0 0 50.88 0 113.088v797.824C0 973.12 50.88 1024 113.088 1024h797.824c62.208 0 113.088-50.88 113.088-113.088V113.088C1024 50.88 973.12 0 910.912 0z" fill="#000000" p-id="6355"></path><path d="M444.608 416.256V384.64a200.512 200.512 0 0 0-32.512-2.56 241.536 241.536 0 0 0-241.408 241.152c0 82.112 41.088 153.92 103.552 197.568a239.616 239.616 0 0 1-65.024-164.224C208.32 525.76 313.6 418.816 444.608 416.256z" fill="#00F2EA" p-id="6356"></path><path d="M450.56 767.744c59.136 0 107.904-47.04 110.464-106.048V135.744h95.872c-1.664-11.136-3.392-22.208-3.392-33.344H522.496v525.952a110.4 110.4 0 0 1-110.4 106.048c-18.88 0-35.968-4.224-51.392-12.8 20.544 28.16 53.12 46.144 89.92 46.144z" fill="#00F2EA" p-id="6357"></path><path d="M736.512 255.488a179.84 179.84 0 0 1-44.48-119.68h-35.136a183.296 183.296 0 0 0 79.616 119.68zM412.096 513.792c-60.8 0-110.464 49.6-110.464 110.272 0 42.816 24 79.552 59.072 97.536a110.336 110.336 0 0 1 122.432-169.344V417.92a200.576 200.576 0 0 0-32.512-2.56h-6.016v102.592a135.616 135.616 0 0 0-32.512-4.224v0.064z" fill="#FF004F" p-id="6358"></path><path d="M836.672 314.496v101.76a305.664 305.664 0 0 1-182.336-59.008v266.88a241.472 241.472 0 0 1-380.096 197.504 243.008 243.008 0 0 0 177.216 76.992 241.536 241.536 0 0 0 241.408-241.152v-266.88a313.6 313.6 0 0 0 182.4 59.008V317.888a185.6 185.6 0 0 1-38.592-3.392z" fill="#FF004F" p-id="6359"></path><path d="M653.44 624.128v-266.88c53.12 38.208 116.928 58.88 182.4 59.008v-101.76a185.152 185.152 0 0 1-99.328-59.008 182.4 182.4 0 0 1-80.448-119.68H561.024v525.952a110.4 110.4 0 0 1-160.96 93.76 110.72 110.72 0 0 1-39.36-33.92 111.04 111.04 0 0 1-59.072-97.472c0-60.8 49.664-110.336 110.464-110.336 11.136 0 22.208 1.664 32.512 5.12V416.256a241.088 241.088 0 0 0-236.288 241.216 239.36 239.36 0 0 0 65.088 164.16 242.624 242.624 0 0 0 231.04 25.408 241.088 241.088 0 0 0 149.056-222.912h-0.064z" fill="#FFFFFF" p-id="6360"></path></svg>